<svg xmlns="http://www.w3.org/2000/svg" version="1.1" xmlns:xlink="http://www.w3.org/1999/xlink" xmlns:svgjs="http://svgjs.dev/svgjs" width="1000" height="260" viewBox="0 0 1000 260"><g transform="matrix(1,0,0,1,-0.6060536983327438,-0.09525137969359321)"><svg viewBox="0 0 396 103" data-background-color="#ffffff" preserveAspectRatio="xMidYMid meet" height="260" width="1000" xmlns="http://www.w3.org/2000/svg" xmlns:xlink="http://www.w3.org/1999/xlink"><g id="tight-bounds" transform="matrix(1,0,0,1,0.23999726453976677,0.03773420041707709)"><svg viewBox="0 0 395.5199999999999 102.92452768074344" height="102.92452768074344" width="395.5199999999999"><g><svg viewBox="0 0 395.5199999999999 102.92452768074344" height="102.92452768074344" width="395.5199999999999"><g><svg viewBox="0 0 662.4455698142942 172.38546062736953" height="102.92452768074344" width="395.5199999999999"><g transform="matrix(1,0,0,1,266.92556981429425,38.55084843180289)"><svg viewBox="0 0 395.52 95.28376376376374" height="95.28376376376374" width="395.52"><g><svg viewBox="0 0 395.52 95.28376376376374" height="95.28376376376374" width="395.52"><g><svg viewBox="0 0 395.52 95.28376376376374" height="95.28376376376374" width="395.52"><g transform="matrix(1,0,0,1,0,0)"><svg width="395.52" viewBox="4.300000190734863 -35.5 149.83999633789062 36.099998474121094" height="95.28376376376374" data-palette-color="#ba3b0a"><path d="M31 0L31-26.7 30.75-26.7 28-21.05 20.35-7.1 12.7-21.05 9.95-26.7 9.7-26.7 9.7 0 4.3 0 4.3-34.9 11-34.9 20.35-17.15 20.65-17.15 30-34.9 36.4-34.9 36.4 0 31 0ZM58.5 0.6L58.5 0.6Q55.1 0.6 52.32-0.58 49.55-1.75 47.57-4.03 45.6-6.3 44.52-9.68 43.45-13.05 43.45-17.45L43.45-17.45Q43.45-21.85 44.52-25.23 45.6-28.6 47.57-30.88 49.55-33.15 52.32-34.33 55.1-35.5 58.5-35.5L58.5-35.5Q61.9-35.5 64.67-34.33 67.45-33.15 69.42-30.88 71.4-28.6 72.47-25.23 73.55-21.85 73.55-17.45L73.55-17.45Q73.55-13.05 72.47-9.68 71.4-6.3 69.42-4.03 67.45-1.75 64.67-0.58 61.9 0.6 58.5 0.6ZM58.5-4.45L58.5-4.45Q60.5-4.45 62.17-5.15 63.85-5.85 65.02-7.18 66.2-8.5 66.85-10.4 67.5-12.3 67.5-14.7L67.5-14.7 67.5-20.2Q67.5-22.6 66.85-24.5 66.2-26.4 65.02-27.73 63.85-29.05 62.17-29.75 60.5-30.45 58.5-30.45L58.5-30.45Q56.45-30.45 54.8-29.75 53.15-29.05 51.97-27.73 50.8-26.4 50.15-24.5 49.5-22.6 49.5-20.2L49.5-20.2 49.5-14.7Q49.5-12.3 50.15-10.4 50.8-8.5 51.97-7.18 53.15-5.85 54.8-5.15 56.45-4.45 58.5-4.45ZM94.2 0L87.65 0 76.2-34.9 82.05-34.9 87.6-17.65 90.95-5.5 91.15-5.5 94.55-17.65 100.1-34.9 105.8-34.9 94.2 0ZM124.69 0L109.49 0 109.49-4.6 114.24-4.6 114.24-30.3 109.49-30.3 109.49-34.9 124.69-34.9 124.69-30.3 119.89-30.3 119.89-4.6 124.69-4.6 124.69 0ZM154.14 0L131.79 0 131.79-34.9 154.14-34.9 154.14-29.9 137.44-29.9 137.44-20.2 152.59-20.2 152.59-15.2 137.44-15.2 137.44-5 154.14-5 154.14 0Z" opacity="1" transform="matrix(1,0,0,1,0,0)" fill="#ba3b0a" class="undefined-text-0" data-fill-palette-color="primary" id="text-0"></path></svg></g></svg></g></svg></g></svg></g><g><svg viewBox="0 0 244.43135999999998 172.38546062736953" height="172.38546062736953" width="244.43135999999998"><g><svg xmlns="http://www.w3.org/2000/svg" xmlns:xlink="http://www.w3.org/1999/xlink" version="1.1" x="0" y="0" viewBox="0.5 10.899999618530273 71.03853607177734 50.099998474121094" enable-background="new 0 0 72 72" xml:space="preserve" height="172.38546062736953" width="244.43135999999998" class="icon-icon-0" data-fill-palette-color="accent" id="icon-0"><g fill="#ba3b0a" data-fill-palette-color="accent"><path fill="#ba3b0a" d="M70.2 10.9H22.8c-0.6 0-1.1 0.4-1.3 1L8.8 59.4c-0.2 0.8 0.4 1.6 1.3 1.6h47.4c0.6 0 1.1-0.4 1.3-1l12.7-47.5C71.7 11.7 71.1 10.9 70.2 10.9zM19.6 53.1l-1 3.7c-0.2 0.6-0.7 1-1.3 1h-3.6c-0.9 0-1.5-0.8-1.3-1.6l1-3.7c0.2-0.6 0.7-1 1.3-1h3.6C19.2 51.4 19.9 52.2 19.6 53.1zM35.2 18.9l1-3.7c0.2-0.6 0.7-1 1.3-1h3.6c0.9 0 1.5 0.8 1.3 1.6l-1 3.7c-0.2 0.6-0.7 1-1.3 1h-3.6C35.6 20.6 34.9 19.8 35.2 18.9zM22.4 18.9l1-3.7c0.2-0.6 0.7-1 1.3-1h3.6c0.9 0 1.5 0.8 1.3 1.6l-1 3.7c-0.2 0.6-0.7 1-1.3 1h-3.6C22.8 20.6 22.2 19.8 22.4 18.9zM32.4 53.1l-1 3.7c-0.2 0.6-0.7 1-1.3 1h-3.6c-0.9 0-1.5-0.8-1.3-1.6l1-3.7c0.2-0.6 0.7-1 1.3-1h3.6C32 51.4 32.6 52.2 32.4 53.1zM45.1 53.1l-1 3.7c-0.2 0.6-0.7 1-1.3 1h-3.6c-0.9 0-1.5-0.8-1.3-1.6l1-3.7c0.2-0.6 0.7-1 1.3-1h3.6C44.7 51.4 45.3 52.2 45.1 53.1zM45.6 37.2l-11.7 9.3c-1.4 1.1-3 0.3-2.6-1.2l5-18.5c0.4-1.5 2.5-2.3 3.2-1.2l6.8 9.3C46.8 35.5 46.5 36.5 45.6 37.2zM47.9 18.9l1-3.7c0.2-0.6 0.7-1 1.3-1h3.6c0.9 0 1.5 0.8 1.3 1.6l-1 3.7c-0.2 0.6-0.7 1-1.3 1h-3.6C48.3 20.6 47.6 19.8 47.9 18.9zM57.8 53.1l-1 3.7c-0.2 0.6-0.7 1-1.3 1h-3.6c-0.9 0-1.5-0.8-1.3-1.6l1-3.7c0.2-0.6 0.7-1 1.3-1h3.6C57.4 51.4 58 52.2 57.8 53.1zM67.8 15.9l-1 3.7c-0.2 0.6-0.7 1-1.3 1h-3.6c-0.9 0-1.5-0.8-1.3-1.6l1-3.7c0.2-0.6 0.7-1 1.3-1h3.6C67.4 14.2 68 15 67.8 15.9z" data-fill-palette-color="accent"></path><path fill="#ba3b0a" d="M3.2 24.1h9.4c1 0 1.7-0.8 1.7-1.7 0-1-0.8-1.7-1.7-1.7H3.2c-1 0-1.7 0.8-1.7 1.7C1.5 23.4 2.3 24.1 3.2 24.1z" data-fill-palette-color="accent"></path><path fill="#ba3b0a" d="M2.2 33.2h7.4c1 0 1.7-0.8 1.7-1.7 0-1-0.8-1.7-1.7-1.7H2.2c-1 0-1.7 0.8-1.7 1.7C0.5 32.4 1.3 33.2 2.2 33.2z" data-fill-palette-color="accent"></path><path fill="#ba3b0a" d="M8.4 38.8H3.2c-1 0-1.7 0.8-1.7 1.7 0 1 0.8 1.7 1.7 1.7h5.2c1 0 1.7-0.8 1.7-1.7C10.1 39.6 9.3 38.8 8.4 38.8z" data-fill-palette-color="accent"></path><path fill="#ba3b0a" d="M5 47.9H2.2c-1 0-1.7 0.8-1.7 1.7 0 1 0.8 1.7 1.7 1.7H5c1 0 1.7-0.8 1.7-1.7C6.7 48.6 6 47.9 5 47.9z" data-fill-palette-color="accent"></path></g></svg></g></svg></g></svg></g></svg></g><defs><mask id="01f6a8ee-6e40-4a82-aadd-d545fbbd7736"><rect width="640" height="400" fill="white"></rect><rect width="348.05760000000004" height="112.21774671388187" fill="black" x="145.97119999999998" y="143.89112664305907" id="transform-me" transform="matrix(1,0,0,1,-122.24000000000004,-148.53773615962828)"></rect></mask><mask id="02a9a78e-64e8-4741-a78e-bc6225cecf11"><rect width="640" height="400" fill="white"></rect><rect width="348.05760000000004" height="112.21774671388187" fill="black" x="145.97119999999998" y="143.89112664305907" id="transform-me" transform="matrix(1,0,0,1,-122.24000000000004,-148.53773615962828)"></rect></mask></defs></svg><rect width="395.5199999999999" height="102.92452768074344" fill="none" stroke="none" visibility="hidden"></rect></g></svg></g></svg>